<mxfile host="app.diagrams.net" agent="Mozilla/5.0 (X11; Linux x86_64) AppleWebKit/537.36 (KHTML, like Gecko) Chrome/128.0.0.0 Safari/537.36" version="25.0.3">
  <diagram name="第 1 页" id="q5K13vannS5evUOn7DiE">
    <mxGraphModel dx="574" dy="331" grid="1" gridSize="10" guides="1" tooltips="1" connect="1" arrows="1" fold="1" page="1" pageScale="1" pageWidth="827" pageHeight="1169" math="0" shadow="0">
      <root>
        <mxCell id="0" />
        <mxCell id="1" parent="0" />
        <mxCell id="CjSr9SJR7toRidrl88-c-7" value="" style="edgeStyle=orthogonalEdgeStyle;rounded=0;orthogonalLoop=1;jettySize=auto;html=1;" edge="1" parent="1" source="CjSr9SJR7toRidrl88-c-1" target="CjSr9SJR7toRidrl88-c-4">
          <mxGeometry relative="1" as="geometry" />
        </mxCell>
        <mxCell id="CjSr9SJR7toRidrl88-c-1" value="Poller" style="rounded=0;whiteSpace=wrap;html=1;" vertex="1" parent="1">
          <mxGeometry x="130" y="170" width="50" height="30" as="geometry" />
        </mxCell>
        <mxCell id="CjSr9SJR7toRidrl88-c-9" value="" style="edgeStyle=orthogonalEdgeStyle;rounded=0;orthogonalLoop=1;jettySize=auto;html=1;" edge="1" parent="1" source="CjSr9SJR7toRidrl88-c-3" target="CjSr9SJR7toRidrl88-c-5">
          <mxGeometry relative="1" as="geometry" />
        </mxCell>
        <mxCell id="CjSr9SJR7toRidrl88-c-3" value="Timer" style="rounded=0;whiteSpace=wrap;html=1;" vertex="1" parent="1">
          <mxGeometry x="220" y="230" width="50" height="30" as="geometry" />
        </mxCell>
        <mxCell id="CjSr9SJR7toRidrl88-c-8" value="" style="edgeStyle=orthogonalEdgeStyle;rounded=0;orthogonalLoop=1;jettySize=auto;html=1;" edge="1" parent="1" source="CjSr9SJR7toRidrl88-c-4" target="CjSr9SJR7toRidrl88-c-3">
          <mxGeometry relative="1" as="geometry" />
        </mxCell>
        <mxCell id="CjSr9SJR7toRidrl88-c-4" value="EventHandle" style="rounded=0;whiteSpace=wrap;html=1;" vertex="1" parent="1">
          <mxGeometry x="200" y="170" width="90" height="30" as="geometry" />
        </mxCell>
        <mxCell id="CjSr9SJR7toRidrl88-c-10" value="" style="edgeStyle=orthogonalEdgeStyle;rounded=0;orthogonalLoop=1;jettySize=auto;html=1;" edge="1" parent="1" source="CjSr9SJR7toRidrl88-c-5" target="CjSr9SJR7toRidrl88-c-1">
          <mxGeometry relative="1" as="geometry" />
        </mxCell>
        <mxCell id="CjSr9SJR7toRidrl88-c-5" value="Functor" style="rounded=0;whiteSpace=wrap;html=1;" vertex="1" parent="1">
          <mxGeometry x="130" y="230" width="50" height="30" as="geometry" />
        </mxCell>
      </root>
    </mxGraphModel>
  </diagram>
</mxfile>
